# xmcd CD database file generated by Grip 3.2.0
# 
# Track frame offsets:
#       150
#       12697
#       25345
#       39252
#       52187
#       65095
#       78540
#       93212
#       106370
#       118330
#       131037
#       144250
#       155652
#       167365
#       180377
#       192065
# 
# Disc length: 2731 seconds
# 
# Revision: 6
# Processed by: cddbd v1.5.2PL0 Copyright (c) Steve Scherf et al.
# Submitted via: Grip 3.2.0
# 
DISCID=d90aa910
DTITLE=Big Bill Broonzy - Warm, Witty and Wise
DYEAR=1998
DGENRE=Blues
TTITLE0=I Can't be Satisfied
TTITLE1=Long Tall Mama
TTITLE2=Worrying You Off My Mind
TTITLE3=Too Too Train Blues
TTITLE4=How You Want it Done?
TTITLE5=C&A Blues
TTITLE6=Southern Flood Blues
TTITLE7=It's a Low Down Dirty Shame
TTITLE8=Trucking Little Woman
TTITLE9=Night Time is the Right Time
TTITLE10=New Shake 'em on Down
TTITLE11=Baby I Done Got Wise
TTITLE12=Just a Dream
TTITLE13=Whiskey and Good Time Blues
TTITLE14=Too Many Drivers
TTITLE15=When I Been Drinking
EXTD=YEAR: 1998 ID3G:   0
EXTT0=
EXTT1=
EXTT2=
EXTT3=
EXTT4=
EXTT5=
EXTT6=
EXTT7=
EXTT8=
EXTT9=
EXTT10=
EXTT11=
EXTT12=
EXTT13=
EXTT14=
EXTT15=
PLAYORDER=
